# xmcd
#
# Track frame offsets:
#	151
#	22226
#	44148
#	60743
#	80256
#	99304
#	121887
#	138011
#	155625
#	182492
#	200133
#	232050
#
# Disc length: 3480 seconds
#
# Revision: 2
# Processed by: cddbd v1.5.2PL0 Copyright (c) Steve Scherf et al.
# Submitted via: EZCDDA 4.3.2
#
DISCID=a60d960c
DTITLE=Varies - Maximun Blues
DYEAR=1900
DGENRE=
TTITLE0=Key To Highway
TTITLE1=Dancing In The Street
TTITLE2=Piece Of My Heart
TTITLE3=I:M Tore Down
TTITLE4=Hard To Handle
TTITLE5=Reconsidered Baby
TTITLE6=R-E-S-P-E-C-T-
TTITLE7=One Good Man
TTITLE8=Texas Flood
TTITLE9=Crossroads
TTITLE10=Walking Blues
TTITLE11=I Need Some Love
EXTD=
EXTT0=
EXTT1=
EXTT2=
EXTT3=
EXTT4=
EXTT5=
EXTT6=
EXTT7=
EXTT8=
EXTT9=
EXTT10=
EXTT11=
PLAYORDER=
